# xmcd CD database file
# Copyright (C) 1996 Ti Kan
#
# Track frame offsets:
# 	150
# 	14950
# 	29325
# 	43697
# 	60890
# 	80447
# 	94667
# 	109427
# 	125105
# 	141567
#
# Disc length: 2124 seconds
#
# Revision: 1
# Processed by: cddbd v1.4b41PL1 Copyright (c) Steve Scherf et al.
# Submitted via: DiscPlay 3.4
#
DISCID=90084a0a
DTITLE=Gary Baker/Frank J. Myers - Baker and Myers
DYEAR=1900
DGENRE=
TTITLE0=FULL MOON
TTITLE1=BREAKIN' THE BANK
TTITLE2=THESE ARMS
TTITLE3=SHOULDER TO CRY ON
TTITLE4=STILL FALLIN'
TTITLE5=WIDE OPEN
TTITLE6=REAL DEAL
TTITLE7=YEARS FROM HERE
TTITLE8=A LITTLE BIT OF HONEY
TTITLE9=A RANDOM ACT OF SENSELESS KINDNESS
EXTD=
EXTT0=
EXTT1=
EXTT2=
EXTT3=
EXTT4=
EXTT5=
EXTT6=
EXTT7=
EXTT8=
EXTT9=
PLAYORDER=
